<svg xmlns="http://www.w3.org/2000/svg" width="300" height="150" viewBox="24 193 275 125">














<path fill-rule="evenodd" clip-rule="evenodd" d="M251.487 289.718C251.487 289.718 251.423 293.334 252.536 295.008C253.65 296.681 256.754 301.336 259.641 302.561C260.531 302.939 263.927 302.987 265.967 304.179C270.066 306.574 270.979 310.888 265.967 311.802C256.018 313.616 252.536 308.372 252.536 308.372C252.536 308.372 248.438 302.561 244.33 298.708C240.222 294.855 236.949 293.695 236.949 293.695" fill="white"/>

<path fill-rule="evenodd" clip-rule="evenodd" d="M239.78 217.209C239.78 217.209 237.051 209.42 230.037 207.311C227.809 206.641 237.557 221.353 228.953 226.842C226.267 228.555 221.492 229.444 215.616 230.28C189.421 234.009 181.524 224.235 165.354 219.462C158.87 217.548 127.333 209.081 122.565 252.209C119.581 279.204 142.186 287.57 162.445 291.859C203.03 300.452 265.218 297.065 284.613 268.744C307.732 234.985 272.199 205.585 267.193 202.477C265.981 201.725 269.457 211.373 269.843 216.252C270.23 221.132 267.193 222.907 267.193 222.907C267.193 222.907 265.996 217.74 255.415 216.854C244.834 215.968 239.78 217.209 239.78 217.209Z" fill="white"/>




<path fill-rule="evenodd" clip-rule="evenodd" d="M128.725 230.886C128.725 230.886 130.517 228.396 131.524 227.16C132.531 225.924 133.61 224.889 133.61 224.889C133.61 224.889 109.286 222.468 100.861 216.197C89.8584 208.007 79.989 194.425 70.0477 191.552C58.163 188.117 53.7644 196.083 50.3364 196.733C39.8938 198.711 20.7681 204.342 29.5135 221.348C32.2135 226.599 40.9598 229.04 47.1216 226.113C53.9995 222.846 62.4695 214.843 71.3776 214.843C81.6789 214.843 83.4725 223.282 96.5491 227.756C104.575 230.502 128.725 230.886 128.725 230.886Z" fill="white"/>
<path fill-rule="evenodd" clip-rule="evenodd" d="M157.689 291.064C157.689 291.064 163.627 297.546 166.088 301.717C168.548 305.887 167.686 308.148 171.102 310.076C176.234 312.972 181.523 312.241 183.877 310.701C186.23 309.161 184.022 305.22 179.089 305.22C177.875 305.22 176.448 302.434 175.757 300.59C175.066 298.747 175.382 294.21 175.382 294.21L157.689 291.064Z" fill="white"/>

<path fill-rule="evenodd" clip-rule="evenodd" d="M266.022 201.743C266.509 201.097 267.269 201.089 267.836 201.441C269.663 202.575 272.968 205.319 276.146 208.538C280.558 213.006 284.497 218.069 287.517 223.526C295.787 238.466 295.048 254.108 284.553 269.434C275.276 282.98 257.126 291.156 231.649 294.819C209.365 298.022 183.568 297.579 162.193 293.053L161.121 292.822C148.887 290.152 139.869 286.759 133.046 281.516C124.096 274.639 119.922 265.016 121.353 252.075C123.518 232.486 131.263 221.599 142.937 217.785C147.277 216.367 151.926 216.019 156.723 216.492C160.013 216.816 162.775 217.428 165.699 218.291L166.219 218.447C169.396 219.41 172.1 220.474 176.27 222.322L179.352 223.703C185.74 226.566 189.437 227.924 194.222 228.889C200.243 230.103 206.873 230.246 214.917 229.146L216.111 228.976C222.677 228.019 226.201 227.15 228.297 225.813C230.751 224.248 231.627 221.711 231.276 218.198C231.116 216.6 230.719 214.915 230.093 212.95L229.921 212.42C229.65 211.617 228.86 209.361 228.715 208.871C228.535 208.264 228.452 207.841 228.482 207.448C228.556 206.461 229.421 205.852 230.389 206.143C235.505 207.682 239.179 212.15 241.436 219.394C241.636 220.037 241.277 220.721 240.634 220.921C239.99 221.122 239.306 220.763 239.106 220.119C237.388 214.605 234.88 211.018 231.595 209.266L231.379 209.154L232.267 211.745L232.292 211.819C234.547 221.436 232.871 228.976 217.704 231.307C216.869 231.435 200.096 232.878 193.132 231.155C182.582 228.544 167.609 218.801 158.633 218.447C149.657 218.093 147.683 218.801 143.695 220.104C132.994 223.6 124.094 234.923 122.298 253.623C121.35 263.498 126.684 273.503 135.43 279.666C157.689 295.352 209.306 296.099 231.302 292.937C256.169 289.362 274.797 280.92 283.607 268.055C293.54 253.549 293.233 238.889 285.383 224.707C282.479 219.46 278.674 214.571 274.41 210.252C272.468 208.285 270.481 206.507 268.869 205.21L268.598 204.994L268.834 205.924L269.589 208.827L269.865 209.914C269.908 210.086 269.949 210.253 269.99 210.419L270.134 211.015C270.644 213.16 270.954 214.824 271.059 216.156C271.351 219.837 270.285 222.513 267.808 223.96C267.227 224.3 266.48 224.104 266.14 223.522C265.8 222.94 265.996 222.193 266.577 221.853C268.15 220.935 268.851 219.174 268.627 216.349C268.534 215.168 268.241 213.603 267.757 211.566L267.62 210.998C267.56 210.756 267.499 210.507 267.433 210.248L266.37 206.14C266.212 205.518 266.093 205.029 265.998 204.603L265.97 204.477C265.808 203.737 265.723 203.207 265.718 202.808C265.713 202.4 265.771 202.075 266.022 201.743Z" fill="#00160A"/>
<path fill-rule="evenodd" clip-rule="evenodd" d="M239.682 215.865L240.554 215.718C246.309 214.769 250.953 214.425 254.502 214.694C258.247 214.978 262.216 215.99 266.411 217.726C266.964 217.955 267.227 218.589 266.998 219.143C266.769 219.696 266.135 219.959 265.581 219.73C261.59 218.078 257.842 217.122 254.339 216.857C250.818 216.59 246.049 216.969 240.05 218.002C239.46 218.104 238.899 217.708 238.798 217.117C238.696 216.527 239.092 215.966 239.682 215.865Z" fill="#00160A"/>
<path fill-rule="evenodd" clip-rule="evenodd" d="M246.618 210.999C249.215 210.466 251.588 210.742 253.704 211.835C255.73 212.881 257.486 214.198 258.967 215.783C259.277 216.115 259.259 216.635 258.928 216.944C258.596 217.254 258.076 217.236 257.766 216.905C256.416 215.459 254.811 214.256 252.95 213.295C251.179 212.38 249.189 212.149 246.949 212.609C246.504 212.7 246.07 212.414 245.979 211.969C245.887 211.525 246.174 211.091 246.618 210.999Z" fill="#00160A"/>
<path fill-rule="evenodd" clip-rule="evenodd" d="M251.87 206.697C252.103 206.307 252.607 206.18 252.997 206.413C255.08 207.659 256.805 209.053 258.167 210.597C259.543 212.156 260.673 214.149 261.562 216.571C261.718 216.997 261.5 217.469 261.074 217.625C260.648 217.782 260.176 217.563 260.019 217.137C259.197 214.897 258.168 213.081 256.936 211.685C255.69 210.274 254.097 208.986 252.153 207.824C251.764 207.591 251.637 207.086 251.87 206.697Z" fill="#00160A"/>
<path fill-rule="evenodd" clip-rule="evenodd" d="M228.065 226.219C228.409 225.729 229.085 225.61 229.575 225.954C230.066 226.297 219.596 241.207 219.596 244.1C219.596 247.237 221.137 249.336 225.242 252.648L226.981 254.03L227.487 254.436C230.032 256.492 231.513 257.934 232.773 259.765C234.534 262.324 235.363 265.182 235.152 268.571C234.891 272.75 233.63 275.639 231.131 278.972L230.905 279.27C230.624 279.633 229.387 281.213 229.048 281.675C227.839 283.326 227.27 284.569 227.167 286.029C226.711 292.459 229.737 300.224 236.308 309.295C236.659 309.78 236.551 310.458 236.066 310.809C235.581 311.161 234.903 311.052 234.551 310.567C227.709 301.122 224.505 292.901 225.004 285.875C225.136 284.012 225.815 282.468 227.137 280.618L227.299 280.394C227.687 279.863 229.106 278.053 229.226 277.896C231.606 274.773 235.048 270.204 232.292 261.51C230.905 257.132 217.732 254.03 217.299 244.712C217.197 242.517 220.856 236.509 228.065 226.219Z" fill="#00160A"/>
<path d="M232.052 271.301L230.539 271.317C221.58 271.432 216.131 271.883 214.448 272.605L214.387 272.632C211.912 273.767 209.965 275.307 208.477 277.151C207.321 278.584 206.504 280.12 205.97 281.653C205.811 282.109 205.688 282.537 205.596 282.925L205.534 283.201L208.125 286.522C208.15 286.555 208.174 286.589 208.196 286.624L208.221 286.66L208.303 286.779C208.862 287.591 209.498 288.384 210.315 289.31L210.692 289.729C211.363 290.462 213.5 292.765 214.226 293.594C215.78 295.368 217.088 297.075 218.341 299.034C220.251 302.021 221.936 305.47 223.448 309.646L223.557 309.952L223.665 310.265C223.797 310.652 223.927 311.049 224.067 311.497L224.706 313.591C225.648 316.678 226.307 318.095 227.351 318.954L227.527 319.095C228.895 320.16 230.17 320.423 233.716 320.536L234.753 320.565C239.466 320.694 241.925 316.951 239.228 314.231C238.382 313.378 235.592 312.716 231.029 312.439C230.431 312.403 230.993 310.863 231.029 310.265C231.066 309.667 231.58 309.212 232.177 309.248C232.706 309.28 233.214 309.317 233.7 309.359C227.657 300.6 224.707 293.137 225.176 286.522C225.309 284.658 225.109 283.929 226.43 282.079L226.683 281.733C227.164 281.09 228.408 279.504 228.519 279.357C229.537 278.022 230.246 276.929 230.815 275.735L230.927 275.495L230.964 275.409L231.027 275.269C231.327 274.585 231.643 273.405 231.966 271.751L232.052 271.301Z" fill="white"/>
<path fill-rule="evenodd" clip-rule="evenodd" d="M206.584 281.943C207.438 284.435 208.929 285.957 211.004 288.312L211.296 288.639C211.815 289.209 214.164 291.739 214.933 292.616C216.486 294.39 217.795 296.097 219.048 298.056C220.957 301.043 222.642 304.492 224.154 308.668C224.227 308.869 224.299 309.075 224.372 309.287L224.57 309.88C224.614 310.016 224.659 310.155 224.704 310.299L224.963 311.131C225.095 311.564 225.363 312.451 225.412 312.613L225.555 313.075C226.423 315.844 227.067 317.161 228.058 317.976L228.233 318.116C229.543 319.137 230.768 319.421 233.982 319.543L235.459 319.587C240.173 319.716 242.631 315.973 239.934 313.253C239.088 312.399 236.299 311.738 231.736 311.461C231.138 311.425 230.683 310.911 230.719 310.313C230.755 309.715 231.269 309.26 231.867 309.296L232.436 309.333C237.201 309.663 240.163 310.403 241.474 311.725C245.696 315.983 241.937 321.814 235.593 321.758L234.83 321.739C230.3 321.617 228.676 321.293 226.68 319.651C225.256 318.48 224.483 316.906 223.489 313.734L222.845 311.622L222.638 310.958C222.55 310.68 222.466 310.423 222.382 310.173L222.32 309.988C222.251 309.788 222.183 309.595 222.115 309.407C220.657 305.378 219.042 302.074 217.22 299.224C216.122 297.507 214.978 295.993 213.64 294.436L213.301 294.045C212.518 293.151 209.968 290.408 209.614 290.012C207.301 287.427 205.919 285.339 204.933 282.587L204.832 282.3C202.915 276.704 200.452 274.795 197.236 275.988C196.674 276.196 190.389 279.211 196.476 275.164C202.563 271.117 206.584 281.943 206.584 281.943Z" fill="#00160A"/>
<path fill-rule="evenodd" clip-rule="evenodd" d="M244.425 243.419C243.244 243.419 241.548 240.025 241.548 238.367C241.548 236.708 245.791 237.269 245.791 237.269C245.791 237.269 250.247 237.867 249.632 239.535C249.018 241.203 245.082 243.419 244.425 243.419Z" fill="#FFB61D"/>
<ellipse cx="237.44" cy="231.209" rx="2.34015" ry="4.37179" fill="#00160A"/>
<ellipse cx="259.82" cy="232.198" rx="2.56465" ry="4.30331" fill="#00160A"/>
<path fill-rule="evenodd" clip-rule="evenodd" d="M258.147 239.423C260.1 238.583 262.262 238.425 264.609 238.937C266.905 239.438 273.82 243.766 273.578 244.15C273.336 244.534 266.334 240.996 264.259 240.543C262.235 240.101 260.421 240.234 258.795 240.932C258.378 241.111 257.895 240.919 257.716 240.502C257.537 240.085 257.73 239.602 258.147 239.423Z" fill="#00160A"/>
<path fill-rule="evenodd" clip-rule="evenodd" d="M259.391 242.262C261.442 242.371 261.976 241.903 264.785 243.727C267.594 245.55 269.693 249.844 269.309 250.086C268.925 250.327 266.683 246.497 264.11 244.568C261.538 242.64 258.503 243.492 258.527 243.039C258.55 242.611 258.896 242.277 259.316 242.262L259.391 242.262Z" fill="#00160A"/>
<path fill-rule="evenodd" clip-rule="evenodd" d="M245.15 245.199C244.58 248.74 244.723 250.994 244.937 253.509C245.15 256.024 247.161 259.645 247.363 261.159C247.564 262.673 243.559 256.431 243.317 253.785C243.075 251.139 241.358 243.946 244.357 244.28C244.357 244.28 245.214 244.806 245.15 245.199Z" fill="#00160A"/>
<path fill-rule="evenodd" clip-rule="evenodd" d="M230.227 239.856C232.048 239.856 232.786 239.9 234.559 240.249C235.005 240.337 235.294 240.769 235.207 241.214C235.119 241.659 234.687 241.949 234.242 241.862C233.611 241.737 232.401 241.209 230.394 241.231C227.651 241.26 225.263 242.782 225.144 242.53C224.95 242.12 228.406 239.856 230.227 239.856Z" fill="#00160A"/>
<path fill-rule="evenodd" clip-rule="evenodd" d="M233.206 236.328C233.647 236.432 233.921 236.874 233.817 237.316C233.712 237.758 233.27 238.031 232.828 237.927C228.884 236.997 225.718 237.022 223.486 236.935C221.29 236.849 216.365 237.193 216.221 236.763C216.076 236.332 229.167 235.375 233.206 236.328Z" fill="#00160A"/>
<path fill-rule="evenodd" clip-rule="evenodd" d="M251.506 288.633C252.105 288.644 252.582 289.138 252.571 289.737C252.532 291.948 252.842 293.509 253.439 294.407C255.946 298.175 258.071 300.717 260.065 301.563C260.12 301.586 260.249 301.619 260.451 301.658L260.75 301.712C260.974 301.749 261.92 301.892 262.086 301.919C262.709 302.017 263.223 302.112 263.724 302.225C264.831 302.476 265.752 302.797 266.514 303.243C268.806 304.581 270.318 306.539 270.465 308.463C270.635 310.687 269.019 312.347 266.162 312.868C259.147 314.148 254.237 312.894 251.65 308.997C248.958 305.18 246.269 302.014 243.588 299.499C240.949 297.024 238.607 295.433 236.586 294.717C236.022 294.517 235.727 293.897 235.927 293.332C236.127 292.768 236.747 292.473 237.311 292.673C239.655 293.504 242.233 295.255 245.072 297.917C247.867 300.54 250.65 303.816 253.44 307.772C255.478 310.842 259.522 311.875 265.773 310.735C267.627 310.397 268.379 309.624 268.303 308.628C268.217 307.507 267.15 306.126 265.42 305.115C264.88 304.799 264.154 304.546 263.245 304.34C262.853 304.251 262.444 304.174 261.96 304.095L260.392 303.851L260.09 303.798C259.714 303.727 259.447 303.657 259.218 303.56C257.727 302.927 256.196 301.566 254.592 299.648C253.534 298.384 252.723 297.245 251.634 295.608C250.747 294.275 250.357 292.309 250.403 289.698C250.413 289.1 250.907 288.623 251.506 288.633Z" fill="#00160A"/>
<path fill-rule="evenodd" clip-rule="evenodd" d="M260.265 308.639C260.372 308.28 260.749 308.076 261.108 308.183C262.225 308.517 263.015 308.886 263.497 309.324C263.954 309.739 264.406 310.377 264.868 311.242C265.045 311.572 264.921 311.983 264.59 312.159C264.26 312.336 263.85 312.211 263.673 311.881C263.277 311.141 262.909 310.621 262.585 310.327C262.287 310.056 261.659 309.763 260.72 309.482C260.362 309.375 260.158 308.998 260.265 308.639Z" fill="#00160A"/>
<path fill-rule="evenodd" clip-rule="evenodd" d="M263.801 307.205C263.919 306.849 264.303 306.657 264.658 306.775C265.614 307.094 266.325 307.456 266.797 307.885C267.265 308.311 267.714 308.998 268.169 309.957C268.33 310.295 268.186 310.699 267.848 310.859C267.51 311.02 267.105 310.876 266.945 310.538C266.559 309.725 266.198 309.172 265.885 308.889C265.577 308.608 265.023 308.325 264.23 308.062C263.875 307.943 263.683 307.56 263.801 307.205Z" fill="#00160A"/>
<path fill-rule="evenodd" clip-rule="evenodd" d="M234.786 316.544C234.905 316.189 235.288 315.997 235.643 316.115C236.6 316.433 237.31 316.796 237.782 317.225C238.251 317.65 238.7 318.338 239.155 319.296C239.316 319.634 239.172 320.039 238.833 320.199C238.495 320.36 238.091 320.216 237.931 319.878C237.545 319.065 237.183 318.512 236.871 318.228C236.562 317.948 236.008 317.665 235.215 317.401C234.86 317.283 234.668 316.899 234.786 316.544Z" fill="#00160A"/>
<path fill-rule="evenodd" clip-rule="evenodd" d="M236.758 314.244C236.876 313.889 237.26 313.697 237.615 313.815C238.571 314.133 239.282 314.496 239.754 314.925C240.222 315.35 240.672 316.038 241.127 316.996C241.287 317.334 241.143 317.738 240.805 317.899C240.467 318.059 240.063 317.915 239.902 317.577C239.516 316.764 239.155 316.212 238.843 315.928C238.534 315.647 237.98 315.365 237.187 315.101C236.832 314.983 236.64 314.599 236.758 314.244Z" fill="#00160A"/>
<path fill-rule="evenodd" clip-rule="evenodd" d="M156.956 290.264C157.398 289.86 164.883 298.445 166.488 301.165C167.005 302.042 167.414 302.886 167.777 303.789C167.889 304.068 167.993 304.343 168.106 304.654L168.532 305.856C169.163 307.611 170.212 308.329 171.635 309.131C175.809 311.487 180.739 311.458 183.283 309.794C184.694 308.871 182.788 306.305 179.089 306.305C177.36 306.305 175.872 303.987 174.741 300.971C174.212 299.558 174.079 297.303 174.3 294.134C174.342 293.537 174.86 293.086 175.457 293.128C176.055 293.17 176.505 293.688 176.464 294.285C176.263 297.166 176.38 299.164 176.772 300.209L176.886 300.505C177.648 302.414 178.768 304.136 179.089 304.136C181.696 304.136 183.9 305.14 185.086 306.737C186.34 308.426 186.175 310.494 184.47 311.609C181.228 313.73 175.431 313.764 170.569 311.02C168.69 309.96 167.867 308.862 167.096 306.787L166.682 305.622C166.544 305.233 166.425 304.915 166.298 304.598C165.974 303.792 165.613 303.046 165.154 302.268C163.558 299.564 160.801 296.067 156.889 291.797C156.485 291.355 156.515 290.669 156.956 290.264Z" fill="#00160A"/>
<path fill-rule="evenodd" clip-rule="evenodd" d="M177.036 308.639C177.144 308.28 177.521 308.076 177.88 308.183C178.996 308.517 179.786 308.886 180.269 309.324C180.726 309.739 181.177 310.377 181.64 311.242C181.817 311.572 181.692 311.983 181.362 312.159C181.032 312.336 180.621 312.211 180.445 311.881C180.049 311.141 179.681 310.621 179.357 310.327C179.058 310.056 178.431 309.763 177.492 309.482C177.133 309.375 176.929 308.998 177.036 308.639Z" fill="#00160A"/>
<path fill-rule="evenodd" clip-rule="evenodd" d="M179.587 307.533C179.705 307.178 180.088 306.986 180.444 307.104C181.4 307.422 182.11 307.785 182.583 308.214C183.051 308.639 183.5 309.327 183.955 310.285C184.116 310.623 183.972 311.028 183.634 311.188C183.295 311.349 182.891 311.205 182.731 310.866C182.345 310.054 181.984 309.501 181.671 309.217C181.363 308.937 180.808 308.654 180.016 308.39C179.66 308.272 179.468 307.888 179.587 307.533Z" fill="#00160A"/>
<path fill-rule="evenodd" clip-rule="evenodd" d="M54.5825 192.837L54.3533 192.995C53.6278 193.502 52.2304 194.522 51.9227 194.738L51.8911 194.76C51.0938 195.309 50.5554 195.588 50.1346 195.667C42.6997 197.076 36.2787 198.653 31.8833 201.98C25.7374 206.634 22.4175 214.77 26.6286 222.959C29.6251 228.786 40.9534 230.244 47.5869 227.092C48.7218 226.553 49.9307 225.878 51.3892 224.986L51.9955 224.612C52.2053 224.481 52.4211 224.346 52.6508 224.2L54.239 223.187L55.9753 222.075L56.6109 221.673C62.9954 217.662 67.0517 215.927 71.3776 215.927C74.9534 215.927 77.4697 216.909 80.6308 219.228L80.8692 219.404C81.4181 219.815 84.9805 222.656 86.1833 223.532C89.3 225.801 92.3774 227.475 96.1981 228.782L96.534 228.894C102.125 230.703 112.821 231.717 128.708 231.97C129.063 231.975 129.398 231.807 129.605 231.519L130.225 230.664C131.114 229.443 131.828 228.503 132.364 227.845C133.008 227.055 133.674 226.33 134.361 225.672C135.029 225.031 134.639 223.902 133.718 223.81L132.762 223.713C117.255 222.1 106.817 219.278 101.508 215.327L101.121 215.037C98.2901 212.896 95.5863 210.48 91.4649 206.526L86.1388 201.41C84.033 199.403 83.2929 198.751 81.8177 197.498L81.5866 197.302C78.1377 194.377 75.1452 192.372 72.2425 191.175C71.6055 190.913 70.9747 190.691 70.3487 190.51C63.885 188.642 59.2447 189.68 54.5825 192.837ZM69.7466 192.593C70.2947 192.752 70.8509 192.948 71.4161 193.181C73.9883 194.241 76.7109 196.043 79.8669 198.688L81.1019 199.738C82.4613 200.907 83.4025 201.782 86.5355 204.792L90.2508 208.366C94.4585 212.395 97.2145 214.835 100.213 217.067L100.389 217.196C105.837 221.153 115.733 223.935 130.128 225.605L131.305 225.738L131.289 225.756C131.153 225.912 131.018 226.071 130.884 226.232L130.588 226.593L130.361 226.876C129.932 227.42 129.421 228.094 128.828 228.901L128.177 229.792L126.859 229.767C111.915 229.464 101.901 228.441 96.9001 226.73C93.4376 225.545 90.6338 224.047 87.8001 222.024L87.4598 221.778C86.3053 220.938 82.757 218.108 82.1671 217.667C78.5475 214.963 75.5665 213.758 71.3776 213.758C66.5216 213.758 62.1801 215.613 55.4682 219.83L54.4366 220.484L52.2246 221.902C51.5681 222.321 51.0493 222.648 50.5449 222.959L49.9846 223.302C48.7084 224.075 47.6425 224.665 46.6563 225.133C41.0329 227.805 32.9111 225.584 30.4778 220.852C26.7561 213.615 28.0656 208.296 33.384 204.27C37.4468 201.193 43.4062 199.149 50.5383 197.798C51.2848 197.657 52.0043 197.299 52.9429 196.668L53.1215 196.546C53.3997 196.354 55.0873 195.121 55.7314 194.679L55.7986 194.633C59.9625 191.813 63.9556 190.92 69.7466 192.593Z" fill="#00160A"/>














<path fill-rule="evenodd" clip-rule="evenodd" d="M160.24 282.196C158.892 288.551 152.382 290.353 152.453 295.469C152.489 298.115 153.22 300.31 153.82 301.999C155.04 305.431 158.218 308.966 159.69 312.24C160.948 315.037 167.261 313.145 167.765 317.492C168.04 319.86 163.574 321.225 162.359 321.317C160.614 321.449 158.403 320.85 155.725 319.52C152.468 317.937 149.854 316.69 147.961 314.41C147.592 313.966 147.361 312.71 146.952 310.736C146.506 308.576 144.98 303.085 140.993 294.22C140.424 292.953 138.245 287.772 135.821 282.471C133.821 278.097 142.087 269.336 145.752 269.642C154.756 270.395 161.193 277.707 160.24 282.196Z" fill="white"/>
<path fill-rule="evenodd" clip-rule="evenodd" d="M153.928 319.613C151.687 318.279 149.843 316.741 148.398 315C148.029 314.555 147.757 312.917 147.349 310.943C147.135 309.909 139.354 291.241 136.787 284.214C136.308 282.903 137.471 283.821 137.744 284.214C139.233 286.36 148.398 300.515 152.776 313.628" fill="#E7EAEE"/>
<path fill-rule="evenodd" clip-rule="evenodd" d="M155.675 319.056L156.008 319.22C158.526 320.471 160.559 321.022 162.077 320.907C163.707 320.784 166.368 319.314 166.485 318.062C166.674 316.053 166.13 315.483 163.442 314.468C162.663 314.174 160.555 314.238 157.307 314.73C156.715 314.819 156.162 314.412 156.073 313.82C155.983 313.228 156.39 312.675 156.982 312.585L157.517 312.507C160.839 312.031 163.016 311.989 164.209 312.439L164.562 312.576C167.788 313.852 168.936 315.171 168.645 318.265C168.398 320.887 164.799 322.876 162.241 323.07C160.333 323.214 158.034 322.613 155.324 321.3L155.051 321.166C151.662 319.52 148.963 317.496 146.967 315.09C146.704 314.774 146.535 314.351 146.363 313.704L146.323 313.55C146.259 313.299 146.195 313.02 146.12 312.67L145.69 310.561L145.624 310.253C144.917 307.086 142.869 301.241 139.765 294.297L139.292 293.252C139 292.616 134.838 285.87 134.527 284.29C133.365 278.379 138.115 275.452 138.115 275.452C138.115 275.452 135.652 280.65 136.346 283.205C136.886 285.192 141.441 292.028 143.061 297.269C144.738 302.692 146.493 308.479 149.057 313.211C150.993 316.783 152.378 318.401 155.675 319.056Z" fill="#00160A"/>
<path fill-rule="evenodd" clip-rule="evenodd" d="M160.934 317.84C161.041 317.482 161.418 317.278 161.777 317.385C162.894 317.719 163.684 318.087 164.166 318.525C164.623 318.941 165.074 319.578 165.537 320.444C165.714 320.774 165.589 321.184 165.259 321.361C164.929 321.537 164.519 321.413 164.342 321.083C163.946 320.342 163.578 319.822 163.254 319.528C162.956 319.257 162.328 318.964 161.389 318.684C161.03 318.577 160.827 318.199 160.934 317.84Z" fill="#00160A"/>
<path fill-rule="evenodd" clip-rule="evenodd" d="M162.826 315.749C162.945 315.394 163.328 315.202 163.684 315.32C164.64 315.638 165.35 316.001 165.823 316.43C166.291 316.855 166.74 317.543 167.195 318.501C167.356 318.839 167.212 319.243 166.873 319.404C166.535 319.564 166.131 319.42 165.971 319.082C165.585 318.269 165.223 317.717 164.911 317.433C164.602 317.153 164.048 316.87 163.256 316.606C162.9 316.488 162.708 316.104 162.826 315.749Z" fill="#00160A"/>
<path fill-rule="evenodd" clip-rule="evenodd" d="M156.041 272.07C158.425 273.029 163.114 278.345 162.389 281.331C161.639 284.419 160.539 285.652 158.788 287.699L158.605 287.911C158.071 288.518 155.866 290.758 155.779 290.852L155.569 291.083C153.605 293.3 152.802 295.752 154.4 300.27C155.571 303.58 157.497 307.343 160.155 310.931C160.506 311.404 161.378 312.794 160.905 313.145C160.432 313.495 159.312 312.362 158.961 311.889C156.183 308.139 154.168 304.504 152.922 300.982C151.04 295.66 151.494 293.467 154.092 290.601L154.258 290.423C154.536 290.133 156.446 288.19 156.952 287.626L157.003 287.569C158.635 285.712 159.711 283.745 160.402 280.902C160.879 278.937 158.873 275.448 154.633 272.617C151.818 270.737 153.656 271.111 156.041 272.07Z" fill="#00160A"/>
</svg>